<?xml version="1.0" standalone="no"?>
<!DOCTYPE svg PUBLIC "-//W3C//DTD SVG 20010904//EN"
 "http://www.w3.org/TR/2001/REC-SVG-20010904/DTD/svg10.dtd">
<svg version="1.0" xmlns="http://www.w3.org/2000/svg"
 width="251.000000pt" height="251.000000pt" viewBox="0 0 251.000000 251.000000"
 preserveAspectRatio="xMidYMid meet">

<g transform="translate(0.000000,251.000000) scale(0.100000,-0.100000)"
fill="#000000" stroke="none">
<path d="M829 2236 c-69 -57 -191 -196 -259 -296 -60 -88 -137 -253 -161 -345
-35 -134 -30 -240 24 -505 57 -274 71 -391 65 -524 -6 -120 -25 -176 -60 -176
-31 0 -65 -24 -83 -60 -33 -65 -84 -60 675 -60 785 0 779 0 939 76 77 38 108
60 175 127 164 163 227 371 181 592 -54 259 -296 480 -560 511 -45 6 -56 3
-74 -15 -26 -26 -27 -72 -3 -93 9 -9 50 -23 90 -32 196 -43 350 -186 406 -375
18 -62 21 -184 5 -251 -32 -140 -143 -277 -280 -344 -70 -35 -201 -68 -214
-54 -4 3 2 35 13 70 55 176 56 370 3 527 -39 115 -84 193 -164 277 -105 113
-260 199 -419 235 -56 12 -58 13 -58 45 0 34 41 94 64 94 29 0 79 78 91 140 5
30 2 39 -24 64 -23 22 -34 46 -43 89 -10 49 -19 65 -52 93 -22 19 -66 44 -97
55 l-57 21 -6 51 c-8 56 -30 117 -44 117 -4 0 -37 -24 -73 -54z"/>
</g>
</svg>
